<svg id="visual" viewBox="0 0 1600 900" width="1600" height="900" xmlns="http://www.w3.org/2000/svg" xmlns:xlink="http://www.w3.org/1999/xlink" version="1.1"><rect x="0" y="0" width="1600" height="900" fill="#000000"></rect><path d="M563 0L418 90L518 180L527 270L656 360L580 450L473 540L561 630L503 720L432 810L454 900L0 900L0 810L0 720L0 630L0 540L0 450L0 360L0 270L0 180L0 90L0 0Z" fill="#0a83f5"></path><path d="M525 0L371 90L352 180L425 270L544 360L520 450L367 540L456 630L520 720L455 810L502 900L0 900L0 810L0 720L0 630L0 540L0 450L0 360L0 270L0 180L0 90L0 0Z" fill="#00a7ff"></path><path d="M318 0L254 90L278 180L372 270L427 360L304 450L273 540L311 630L300 720L261 810L249 900L0 900L0 810L0 720L0 630L0 540L0 450L0 360L0 270L0 180L0 90L0 0Z" fill="#00c7ff"></path><path d="M222 0L154 90L316 180L167 270L209 360L230 450L217 540L191 630L314 720L277 810L256 900L0 900L0 810L0 720L0 630L0 540L0 450L0 360L0 270L0 180L0 90L0 0Z" fill="#00e4ff"></path><path d="M82 0L84 90L153 180L168 270L68 360L148 450L140 540L109 630L69 720L162 810L123 900L0 900L0 810L0 720L0 630L0 540L0 450L0 360L0 270L0 180L0 90L0 0Z" fill="#00fff7"></path></svg>